<?xml version="1.0" standalone="no"?>
<!DOCTYPE svg PUBLIC "-//W3C//DTD SVG 20010904//EN"
 "http://www.w3.org/TR/2001/REC-SVG-20010904/DTD/svg10.dtd">
<svg version="1.0" xmlns="http://www.w3.org/2000/svg"
 width="1024.000000pt" height="1024.000000pt" viewBox="0 0 1024.000000 1024.000000"
 preserveAspectRatio="xMidYMid meet">

<g transform="translate(0.000000,1024.000000) scale(0.100000,-0.100000)"
fill="#000000" stroke="none">
<path d="M6110 9399 c-41 -10 -127 -30 -190 -45 -63 -14 -140 -32 -170 -39
-104 -27 -320 -77 -610 -142 -63 -14 -137 -31 -165 -39 -27 -7 -113 -27 -190
-44 -449 -103 -528 -121 -585 -136 -61 -16 -186 -44 -328 -74 -51 -10 -96 -21
-101 -25 -5 -3 -51 -14 -103 -25 -51 -11 -131 -29 -178 -40 -47 -11 -132 -31
-190 -44 -58 -14 -154 -36 -215 -50 -60 -14 -159 -37 -220 -51 -60 -15 -148
-35 -195 -46 -47 -10 -124 -27 -171 -38 -211 -48 -277 -79 -374 -175 -55 -55
-125 -170 -125 -204 0 -6 -9 -38 -19 -69 -10 -32 -31 -98 -46 -148 -15 -49
-37 -124 -50 -165 -12 -41 -35 -115 -50 -165 -15 -49 -33 -108 -40 -130 -7
-22 -27 -89 -45 -150 -17 -60 -40 -135 -50 -165 -10 -30 -31 -95 -45 -145 -15
-49 -35 -117 -45 -150 -10 -33 -30 -100 -45 -150 -76 -255 -113 -375 -136
-445 -9 -30 -32 -104 -49 -165 -18 -60 -38 -128 -45 -150 -7 -22 -25 -80 -40
-130 -15 -49 -38 -126 -51 -170 -48 -155 -62 -201 -87 -285 -56 -186 -89 -297
-102 -335 -18 -56 -70 -228 -130 -430 -15 -49 -35 -115 -46 -145 -50 -148 -59
-243 -33 -361 31 -140 49 -165 315 -455 85 -93 200 -219 255 -280 54 -61 169
-188 254 -281 179 -197 636 -701 1005 -1109 94 -104 222 -245 285 -314 63 -69
133 -145 155 -170 249 -282 537 -586 582 -616 101 -67 278 -102 373 -73 19 5
76 18 125 29 95 20 253 56 395 90 47 11 127 29 179 41 52 11 98 22 102 25 4 2
52 14 106 25 54 12 145 32 203 46 58 13 145 32 193 43 48 10 102 23 120 29 18
6 64 17 102 25 39 8 120 27 180 41 61 14 148 34 195 45 216 49 313 71 415 95
61 15 146 35 190 45 44 10 103 24 130 30 28 7 100 23 160 37 210 48 320 73
365 84 25 6 81 20 125 29 44 10 132 30 195 45 63 14 153 35 200 45 213 48 297
90 389 197 39 45 101 156 101 179 0 11 40 145 65 219 7 22 27 90 45 150 17 61
40 135 50 165 10 30 29 94 44 143 14 48 38 126 52 175 15 48 35 116 46 152 11
36 28 90 38 120 10 30 32 105 50 165 17 61 35 121 40 135 5 14 22 71 39 128
70 233 93 309 106 347 7 22 25 81 40 130 14 50 35 118 46 152 11 34 26 84 33
110 8 26 26 86 40 133 15 47 44 144 66 215 21 72 43 144 48 160 6 17 22 71 37
120 15 50 37 124 50 165 13 41 35 113 49 160 29 99 105 350 141 465 50 164 55
215 29 341 -30 143 -47 168 -321 466 -87 95 -201 221 -253 279 -52 58 -147
162 -210 230 -63 69 -148 163 -189 209 -41 47 -149 166 -240 266 -91 99 -222
243 -291 320 -69 77 -186 207 -260 288 -212 234 -547 603 -640 706 -390 434
-438 479 -560 522 -81 28 -225 32 -320 7z m248 -359 c34 -19 147 -139 508
-541 190 -211 634 -701 679 -749 29 -30 92 -100 140 -155 49 -55 135 -149 191
-210 56 -60 170 -186 254 -280 161 -179 415 -458 714 -784 184 -201 226 -262
226 -329 0 -33 -12 -83 -50 -207 -10 -33 -30 -100 -45 -150 -15 -49 -36 -115
-45 -145 -10 -30 -30 -95 -45 -145 -14 -49 -34 -117 -45 -150 -10 -33 -32
-109 -50 -170 -18 -60 -40 -135 -50 -165 -26 -77 -53 -167 -90 -295 -17 -60
-38 -128 -45 -150 -7 -22 -25 -80 -40 -130 -15 -49 -38 -124 -50 -165 -13 -41
-35 -115 -50 -165 -15 -49 -33 -108 -40 -130 -7 -22 -27 -89 -45 -150 -18 -60
-40 -135 -50 -165 -27 -83 -68 -219 -136 -447 -14 -49 -32 -106 -39 -128 -14
-43 -61 -197 -102 -335 -13 -47 -31 -103 -38 -125 -7 -22 -30 -96 -50 -165
-21 -69 -45 -138 -53 -155 -38 -78 -89 -105 -287 -150 -66 -15 -147 -34 -180
-42 -33 -8 -98 -24 -145 -34 -47 -10 -134 -30 -195 -44 -60 -14 -152 -35 -203
-45 -51 -10 -97 -22 -102 -25 -5 -3 -35 -10 -67 -16 -32 -5 -89 -18 -128 -29
-38 -10 -104 -26 -145 -35 -41 -10 -111 -26 -155 -36 -44 -10 -129 -29 -190
-44 -60 -14 -141 -32 -180 -40 -38 -8 -95 -21 -125 -29 -52 -14 -136 -34 -395
-93 -60 -13 -128 -29 -150 -34 -22 -6 -78 -18 -125 -28 -47 -10 -103 -24 -125
-30 -51 -13 -230 -56 -320 -76 -115 -26 -234 -53 -345 -79 -58 -13 -157 -36
-220 -50 -217 -49 -218 -49 -467 222 -104 114 -225 248 -268 297 -43 50 -151
169 -240 265 -89 96 -177 193 -196 215 -45 53 -199 224 -275 305 -34 36 -124
135 -200 220 -76 85 -190 211 -254 280 -63 70 -133 146 -155 171 -22 25 -168
186 -325 358 -157 173 -341 375 -409 450 -126 139 -171 211 -171 273 0 29 24
123 55 213 8 22 28 90 45 150 18 61 38 128 45 150 7 22 25 79 39 128 68 229
79 266 96 317 10 30 30 96 45 145 15 50 37 124 50 165 12 41 32 109 44 150 12
41 33 109 46 150 13 41 35 116 50 165 15 50 33 108 40 130 8 22 28 90 45 150
34 117 61 206 90 295 10 30 30 98 45 150 15 52 36 120 45 150 10 30 30 96 45
145 14 50 37 124 50 165 13 41 35 116 50 165 15 50 35 115 45 145 10 30 31 98
45 150 15 52 33 113 41 135 7 22 30 96 50 165 67 230 87 247 349 305 66 14
156 35 200 45 44 10 139 33 210 49 72 17 150 36 175 42 25 6 92 22 150 35 58
12 155 35 215 49 61 14 133 30 160 36 28 5 75 16 105 24 30 8 105 26 165 40
213 49 291 67 390 90 55 13 152 35 215 50 296 67 339 77 390 91 30 8 96 23
145 34 50 11 131 29 180 41 50 11 137 31 195 44 101 23 193 45 365 85 44 10
132 30 195 45 63 15 117 29 120 32 12 12 122 -7 158 -27z"/>
<path d="M5865 8600 c-44 -10 -120 -28 -170 -40 -98 -23 -263 -61 -390 -90
-44 -9 -100 -23 -125 -29 -25 -6 -94 -22 -155 -36 -60 -14 -155 -36 -210 -49
-55 -13 -154 -36 -220 -51 -66 -14 -138 -31 -160 -36 -22 -6 -76 -19 -120 -28
-44 -10 -100 -24 -125 -30 -65 -16 -236 -56 -375 -87 -66 -14 -165 -37 -220
-50 -55 -13 -117 -26 -138 -30 -20 -3 -39 -10 -42 -14 -7 -12 18 -19 133 -40
57 -11 107 -22 111 -24 4 -3 57 -14 117 -26 60 -11 163 -32 229 -46 66 -14
166 -34 223 -44 57 -11 107 -22 111 -24 4 -3 45 -12 91 -20 47 -8 150 -29 230
-46 80 -17 179 -37 220 -45 41 -7 104 -20 140 -28 36 -9 126 -27 200 -42 74
-15 173 -36 220 -46 105 -24 206 -38 218 -30 5 3 13 22 17 41 4 19 15 60 25
90 10 30 30 96 45 145 14 50 34 115 44 145 10 30 30 93 44 140 15 47 53 172
87 279 33 107 60 198 60 203 0 11 -24 9 -115 -12z"/>
<path d="M6321 8431 c-14 -42 -32 -101 -42 -131 -10 -30 -32 -102 -49 -160
-17 -58 -40 -130 -50 -160 -10 -30 -30 -95 -45 -145 -14 -49 -32 -108 -40
-130 -41 -123 -77 -245 -73 -255 3 -10 67 -40 263 -125 17 -7 77 -33 135 -58
58 -25 159 -69 225 -98 66 -28 138 -59 160 -69 22 -10 74 -32 115 -50 41 -17
93 -40 115 -50 51 -22 91 -40 185 -80 41 -18 93 -40 115 -50 22 -10 90 -39
150 -65 61 -26 169 -74 240 -105 72 -32 171 -74 220 -95 50 -20 114 -48 143
-62 29 -14 55 -23 57 -21 2 2 -13 21 -33 43 -43 46 -239 261 -291 320 -20 22
-87 96 -150 165 -170 185 -199 217 -276 305 -38 44 -99 112 -136 150 -68 73
-206 226 -324 360 -38 43 -100 111 -136 150 -123 132 -214 232 -324 358 -60
69 -114 127 -120 130 -5 2 -21 -30 -34 -72z"/>
<path d="M2715 7770 c-5 -8 31 -452 40 -500 3 -14 12 -110 20 -215 9 -104 20
-224 25 -265 5 -41 17 -165 25 -275 9 -110 18 -207 20 -215 3 -8 11 -103 20
-210 9 -107 22 -249 30 -315 7 -66 16 -165 20 -220 3 -55 12 -154 20 -220 8
-66 19 -190 25 -275 7 -85 14 -157 16 -159 4 -4 85 72 354 334 175 169 322
311 540 520 63 60 185 177 270 260 314 304 728 703 830 800 138 131 247 235
343 328 72 70 76 77 58 86 -11 6 -29 11 -41 11 -11 0 -58 9 -103 19 -45 11
-143 31 -217 46 -74 15 -171 35 -215 45 -44 10 -100 21 -125 25 -25 3 -58 11
-75 16 -16 5 -77 18 -135 29 -150 28 -440 86 -545 109 -108 24 -216 46 -345
71 -116 22 -227 45 -340 70 -47 10 -146 31 -220 45 -74 15 -170 35 -213 45
-42 10 -79 14 -82 10z"/>
<path d="M2375 6973 c-4 -21 -15 -63 -24 -93 -10 -30 -33 -104 -51 -165 -18
-60 -40 -135 -50 -165 -10 -30 -30 -94 -44 -142 -46 -155 -74 -250 -116 -388
-23 -74 -55 -180 -71 -235 -17 -55 -37 -118 -44 -140 -8 -22 -28 -89 -45 -150
-17 -60 -36 -123 -42 -140 -5 -16 -18 -57 -28 -90 -9 -33 -34 -114 -54 -180
-20 -66 -48 -158 -62 -205 -14 -47 -31 -103 -39 -125 -55 -168 -77 -246 -72
-258 5 -14 94 -3 317 38 47 8 128 22 180 29 95 14 206 32 394 64 l98 17 -6 80
c-4 44 -14 139 -22 210 -8 72 -18 186 -23 255 -9 119 -32 360 -66 700 -9 85
-22 232 -30 325 -8 94 -19 215 -25 270 -5 55 -17 179 -25 275 -18 200 -25 250
-35 250 -4 0 -11 -17 -15 -37z"/>
<path d="M6060 6983 c1 -16 7 -57 15 -93 25 -107 65 -289 85 -380 10 -47 30
-139 44 -205 28 -123 63 -284 96 -435 10 -47 30 -139 45 -205 15 -66 33 -154
41 -195 7 -41 16 -82 20 -90 5 -14 31 -134 75 -349 11 -51 21 -97 24 -101 3
-4 14 -52 25 -106 20 -99 35 -172 85 -399 66 -299 76 -346 94 -435 11 -52 24
-108 30 -123 6 -16 11 -40 11 -55 0 -39 20 -103 30 -97 4 3 53 60 107 127 54
67 142 176 196 242 54 67 144 177 200 246 149 184 1128 1380 1214 1483 41 49
72 94 70 100 -4 13 -12 17 -117 63 -90 38 -136 58 -212 93 -26 11 -50 21 -53
21 -3 0 -36 14 -73 31 -84 38 -81 36 -237 104 -71 31 -143 62 -160 70 -16 7
-84 37 -150 65 -66 28 -165 71 -220 95 -55 23 -154 66 -220 94 -66 29 -133 58
-150 66 -16 7 -84 37 -150 65 -66 29 -138 60 -160 70 -22 10 -87 39 -145 63
-178 77 -363 158 -406 178 -52 25 -54 24 -54 -8z"/>
<path d="M5570 6867 c-92 -90 -279 -269 -511 -491 -63 -60 -175 -168 -249
-240 -214 -208 -684 -661 -810 -781 -567 -542 -809 -780 -802 -786 4 -4 48
-19 97 -34 50 -15 115 -35 145 -45 60 -20 164 -52 305 -96 50 -15 135 -42 190
-59 55 -18 147 -47 205 -64 58 -18 130 -41 160 -51 30 -10 102 -33 160 -50 58
-17 123 -38 145 -45 22 -7 87 -28 145 -46 58 -17 161 -49 230 -71 156 -49 260
-81 325 -101 28 -9 131 -41 230 -72 99 -31 218 -67 265 -81 47 -14 101 -32
120 -39 19 -7 82 -27 140 -45 194 -59 265 -81 308 -97 24 -8 45 -13 48 -10 3
2 -2 33 -11 68 -24 96 -109 486 -131 599 -7 41 -16 82 -20 90 -3 8 -14 56 -24
105 -10 50 -30 142 -44 205 -15 63 -37 167 -51 230 -13 63 -33 156 -44 205
-11 50 -27 124 -36 165 -14 71 -31 144 -76 340 -20 86 -32 145 -69 324 -11 54
-23 102 -25 107 -3 4 -14 54 -25 111 -11 57 -31 150 -44 208 -13 58 -33 148
-44 200 -47 211 -74 337 -83 380 -5 24 -13 48 -17 52 -4 4 -50 -34 -102 -85z"/>
<path d="M8394 5097 c-17 -26 -214 -270 -292 -362 -10 -11 -65 -78 -122 -150
-58 -71 -149 -183 -203 -250 -54 -66 -140 -172 -192 -235 -51 -63 -213 -261
-360 -440 -146 -179 -272 -336 -278 -349 -11 -22 6 -40 313 -344 179 -176 339
-333 357 -349 l32 -29 12 23 c7 12 20 52 30 88 18 64 29 104 84 285 15 50 37
124 50 165 12 41 39 129 59 195 20 66 48 158 62 205 14 47 32 103 39 125 7 22
25 81 40 130 43 147 86 287 100 330 7 22 39 126 70 230 31 105 63 208 70 230
7 22 25 79 39 128 57 191 79 264 98 318 25 73 21 101 -8 56z"/>
<path d="M2600 4259 c-36 -4 -74 -11 -85 -14 -18 -6 -200 -35 -430 -70 -49 -8
-130 -21 -180 -29 -49 -9 -107 -18 -127 -21 -21 -3 -38 -10 -38 -15 0 -5 53
-67 118 -137 143 -155 854 -940 972 -1073 46 -52 154 -172 240 -266 85 -93
189 -208 230 -253 41 -46 92 -102 112 -125 42 -46 50 -34 22 32 -16 39 -94
248 -126 342 -10 30 -23 64 -28 75 -5 11 -37 97 -70 190 -33 94 -65 179 -70
190 -5 11 -28 72 -51 135 -23 63 -52 144 -66 180 -13 36 -31 83 -38 105 -8 22
-28 76 -45 120 -17 44 -39 105 -50 135 -51 149 -61 176 -70 195 -5 11 -25 65
-45 120 -19 55 -40 109 -45 120 -5 11 -14 32 -20 48 -10 29 -9 29 -110 16z"/>
<path d="M3140 4178 c0 -9 20 -63 71 -193 10 -28 23 -64 28 -80 5 -17 24 -66
41 -110 17 -44 39 -105 50 -135 10 -30 29 -84 43 -120 13 -36 43 -117 66 -180
23 -63 46 -124 51 -135 5 -11 18 -45 28 -75 11 -30 38 -107 62 -170 23 -63 62
-169 85 -235 24 -66 58 -156 75 -200 17 -44 38 -102 47 -130 8 -27 19 -54 23
-60 4 -5 15 -32 23 -60 9 -27 27 -81 42 -120 14 -38 35 -95 46 -125 10 -30 23
-64 28 -75 5 -11 17 -42 26 -70 55 -160 90 -245 102 -245 4 0 40 24 79 53 131
96 570 411 769 552 72 50 292 208 490 350 379 272 567 406 728 519 53 38 97
73 97 77 0 4 -66 29 -147 54 -82 26 -166 53 -188 60 -22 7 -87 28 -145 45 -58
18 -130 40 -160 50 -30 10 -122 39 -205 65 -82 25 -177 54 -210 64 -33 11
-134 42 -225 71 -91 28 -183 57 -205 65 -22 7 -87 27 -145 45 -58 17 -130 40
-160 50 -30 10 -95 30 -145 45 -98 29 -218 66 -305 95 -87 29 -207 66 -305 95
-49 15 -115 35 -145 45 -30 10 -93 30 -140 44 -47 15 -98 31 -115 37 -83 29
-155 47 -155 37z"/>
<path d="M6604 3000 c-21 -16 -93 -67 -159 -114 -66 -47 -151 -108 -190 -135
-196 -141 -1029 -735 -1085 -775 -36 -26 -111 -80 -168 -121 -57 -40 -109 -76
-115 -78 -7 -2 -9 -8 -5 -12 4 -4 49 2 100 15 174 41 263 62 368 86 58 14 143
33 190 44 47 11 135 32 195 45 61 14 146 34 190 44 105 25 349 82 585 136 63
15 155 36 203 46 49 10 92 21 96 23 4 3 50 14 102 25 52 12 144 32 204 46 61
14 138 32 173 39 35 8 65 16 68 19 6 5 21 -11 -372 380 -177 174 -325 317
-331 317 -5 0 -27 -13 -49 -30z"/>
</g>
</svg>
